<?xml version="1.0" encoding="UTF-8" standalone="no"?>
<!DOCTYPE svg PUBLIC "-//W3C//DTD SVG 1.1//EN"
 "http://www.w3.org/Graphics/SVG/1.1/DTD/svg11.dtd">
<!-- Generated by graphviz version 2.43.0 (0)
 -->
<!-- Title: module Pages: 1 -->
<svg width="1566pt" height="1484pt"
 viewBox="0.00 0.00 1566.33 1484.00" xmlns="http://www.w3.org/2000/svg" xmlns:xlink="http://www.w3.org/1999/xlink">
<g id="graph0" class="graph" transform="scale(1 1) rotate(0) translate(4 1480)">
<title>module</title>
<polygon fill="white" stroke="transparent" points="-4,4 -4,-1480 1562.33,-1480 1562.33,4 -4,4"/>
<!-- def -->
<g id="node1" class="node">
<title>def</title>
<ellipse fill="none" stroke="black" cx="1352.3" cy="-1458" rx="203.36" ry="18"/>
<text text-anchor="middle" x="1352.3" y="-1454.3" font-family="Times,serif" font-size="14.00">src/main/resources/configdefinitions/*.def</text>
</g>
<!-- generateSources -->
<g id="node25" class="node">
<title>generateSources</title>
<text text-anchor="middle" x="1352.3" y="-1274.3" font-family="Times,serif" font-size="14.00">:generateSources</text>
</g>
<!-- def&#45;&gt;generateSources -->
<g id="edge16" class="edge">
<title>def&#45;&gt;generateSources</title>
<path fill="none" stroke="black" d="M1352.3,-1439.93C1352.3,-1408.97 1352.3,-1343.3 1352.3,-1306.13"/>
<polygon fill="black" stroke="black" points="1355.8,-1306.02 1352.3,-1296.02 1348.8,-1306.02 1355.8,-1306.02"/>
</g>
<!-- generated_sources -->
<g id="node2" class="node">
<title>generated_sources</title>
<ellipse fill="none" stroke="black" cx="1352.3" cy="-1098" rx="206.06" ry="18"/>
<text text-anchor="middle" x="1352.3" y="-1094.3" font-family="Times,serif" font-size="14.00">generated&#45;sources/vespa&#45;configgen&#45;plugin</text>
</g>
<!-- compile -->
<g id="node22" class="node">
<title>compile</title>
<text text-anchor="middle" x="967.3" y="-914.3" font-family="Times,serif" font-size="14.00">:compile</text>
</g>
<!-- generated_sources&#45;&gt;compile -->
<g id="edge20" class="edge">
<title>generated_sources&#45;&gt;compile</title>
<path fill="none" stroke="black" d="M1316.08,-1080.25C1245.89,-1047.8 1091.44,-976.4 1013.79,-940.5"/>
<polygon fill="black" stroke="black" points="1014.81,-937.11 1004.26,-936.09 1011.87,-943.47 1014.81,-937.11"/>
</g>
<!-- jar_no_fork -->
<g id="node28" class="node">
<title>jar_no_fork</title>
<text text-anchor="middle" x="1172.3" y="-914.3" font-family="Times,serif" font-size="14.00">:jar&#45;no&#45;fork</text>
</g>
<!-- generated_sources&#45;&gt;jar_no_fork -->
<g id="edge21" class="edge">
<title>generated_sources&#45;&gt;jar_no_fork</title>
<path fill="none" stroke="black" d="M1335.04,-1079.93C1302.92,-1048.17 1233.87,-979.89 1196.88,-943.32"/>
<polygon fill="black" stroke="black" points="1199.07,-940.56 1189.5,-936.02 1194.15,-945.54 1199.07,-940.56"/>
</g>
<!-- javadoc_no_fork -->
<g id="node29" class="node">
<title>javadoc_no_fork</title>
<text text-anchor="middle" x="1352.3" y="-914.3" font-family="Times,serif" font-size="14.00">:javadoc&#45;no&#45;fork</text>
</g>
<!-- generated_sources&#45;&gt;javadoc_no_fork -->
<g id="edge22" class="edge">
<title>generated_sources&#45;&gt;javadoc_no_fork</title>
<path fill="none" stroke="black" d="M1352.3,-1079.93C1352.3,-1048.97 1352.3,-983.3 1352.3,-946.13"/>
<polygon fill="black" stroke="black" points="1355.8,-946.02 1352.3,-936.02 1348.8,-946.02 1355.8,-946.02"/>
</g>
<!-- src_main_java -->
<g id="node3" class="node">
<title>src_main_java</title>
<ellipse fill="none" stroke="black" cx="1055.3" cy="-1098" rx="72.59" ry="18"/>
<text text-anchor="middle" x="1055.3" y="-1094.3" font-family="Times,serif" font-size="14.00">src/main/java</text>
</g>
<!-- src_main_java&#45;&gt;compile -->
<g id="edge38" class="edge">
<title>src_main_java&#45;&gt;compile</title>
<path fill="none" stroke="black" d="M1046.86,-1079.93C1031.42,-1048.7 998.52,-982.17 980.24,-945.18"/>
<polygon fill="black" stroke="black" points="983.28,-943.43 975.71,-936.02 977,-946.53 983.28,-943.43"/>
</g>
<!-- src_main_java&#45;&gt;jar_no_fork -->
<g id="edge39" class="edge">
<title>src_main_java&#45;&gt;jar_no_fork</title>
<path fill="none" stroke="black" d="M1066.51,-1079.93C1087.13,-1048.57 1131.15,-981.6 1155.4,-944.71"/>
<polygon fill="black" stroke="black" points="1158.54,-946.29 1161.11,-936.02 1152.69,-942.45 1158.54,-946.29"/>
</g>
<!-- src_main_java&#45;&gt;javadoc_no_fork -->
<g id="edge40" class="edge">
<title>src_main_java&#45;&gt;javadoc_no_fork</title>
<path fill="none" stroke="black" d="M1081.65,-1081.2C1134.59,-1049.48 1253.95,-977.94 1314.92,-941.4"/>
<polygon fill="black" stroke="black" points="1317.06,-944.2 1323.83,-936.06 1313.46,-938.2 1317.06,-944.2"/>
</g>
<!-- src_main_resources -->
<g id="node4" class="node">
<title>src_main_resources</title>
<ellipse fill="none" stroke="black" cx="865.3" cy="-1098" rx="98.58" ry="18"/>
<text text-anchor="middle" x="865.3" y="-1094.3" font-family="Times,serif" font-size="14.00">src/main/resources</text>
</g>
<!-- resources -->
<g id="node30" class="node">
<title>resources</title>
<text text-anchor="middle" x="865.3" y="-914.3" font-family="Times,serif" font-size="14.00">:resources</text>
</g>
<!-- src_main_resources&#45;&gt;resources -->
<g id="edge41" class="edge">
<title>src_main_resources&#45;&gt;resources</title>
<path fill="none" stroke="black" d="M865.3,-1079.93C865.3,-1048.97 865.3,-983.3 865.3,-946.13"/>
<polygon fill="black" stroke="black" points="868.8,-946.02 865.3,-936.02 861.8,-946.02 868.8,-946.02"/>
</g>
<!-- src_test_java -->
<g id="node5" class="node">
<title>src_test_java</title>
<ellipse fill="none" stroke="black" cx="222.3" cy="-1098" rx="67.69" ry="18"/>
<text text-anchor="middle" x="222.3" y="-1094.3" font-family="Times,serif" font-size="14.00">src/test/java</text>
</g>
<!-- testCompile -->
<g id="node32" class="node">
<title>testCompile</title>
<text text-anchor="middle" x="222.3" y="-914.3" font-family="Times,serif" font-size="14.00">:testCompile</text>
</g>
<!-- src_test_java&#45;&gt;testCompile -->
<g id="edge42" class="edge">
<title>src_test_java&#45;&gt;testCompile</title>
<path fill="none" stroke="black" d="M222.3,-1079.93C222.3,-1048.97 222.3,-983.3 222.3,-946.13"/>
<polygon fill="black" stroke="black" points="225.8,-946.02 222.3,-936.02 218.8,-946.02 225.8,-946.02"/>
</g>
<!-- src_test_resources -->
<g id="node6" class="node">
<title>src_test_resources</title>
<ellipse fill="none" stroke="black" cx="144.3" cy="-738" rx="94.48" ry="18"/>
<text text-anchor="middle" x="144.3" y="-734.3" font-family="Times,serif" font-size="14.00">src/test/resources</text>
</g>
<!-- testResources -->
<g id="node33" class="node">
<title>testResources</title>
<text text-anchor="middle" x="160.3" y="-554.3" font-family="Times,serif" font-size="14.00">:testResources</text>
</g>
<!-- src_test_resources&#45;&gt;testResources -->
<g id="edge43" class="edge">
<title>src_test_resources&#45;&gt;testResources</title>
<path fill="none" stroke="black" d="M145.83,-719.93C148.61,-688.97 154.52,-623.3 157.86,-586.13"/>
<polygon fill="black" stroke="black" points="161.36,-586.29 158.77,-576.02 154.38,-585.66 161.36,-586.29"/>
</g>
<!-- compile_jars -->
<g id="node7" class="node">
<title>compile_jars</title>
<ellipse fill="none" stroke="black" cx="677.3" cy="-1098" rx="71.49" ry="18"/>
<text text-anchor="middle" x="677.3" y="-1094.3" font-family="Times,serif" font-size="14.00">compile JARs</text>
</g>
<!-- assemble_container_plugin -->
<g id="node21" class="node">
<title>assemble_container_plugin</title>
<text text-anchor="middle" x="1026.3" y="-554.3" font-family="Times,serif" font-size="14.00">:assemble&#45;container&#45;plugin</text>
</g>
<!-- compile_jars&#45;&gt;assemble_container_plugin -->
<g id="edge9" class="edge">
<title>compile_jars&#45;&gt;assemble_container_plugin</title>
<path fill="none" stroke="black" d="M718.74,-1083.27C800.92,-1055.15 979.6,-989.14 1014.3,-936 1087.04,-824.59 1051.87,-652.54 1034.26,-586.29"/>
<polygon fill="black" stroke="black" points="1037.53,-584.96 1031.51,-576.24 1030.77,-586.81 1037.53,-584.96"/>
</g>
<!-- compile_jars&#45;&gt;compile -->
<g id="edge10" class="edge">
<title>compile_jars&#45;&gt;compile</title>
<path fill="none" stroke="black" d="M703.03,-1081.2C754.72,-1049.48 871.27,-977.94 930.8,-941.4"/>
<polygon fill="black" stroke="black" points="932.81,-944.27 939.51,-936.06 929.15,-938.31 932.81,-944.27"/>
</g>
<!-- generate_bundle_classpath_mappings -->
<g id="node23" class="node">
<title>generate_bundle_classpath_mappings</title>
<text text-anchor="middle" x="677.3" y="-554.3" font-family="Times,serif" font-size="14.00">:generate&#45;bundle&#45;classpath&#45;mappings</text>
</g>
<!-- compile_jars&#45;&gt;generate_bundle_classpath_mappings -->
<g id="edge11" class="edge">
<title>compile_jars&#45;&gt;generate_bundle_classpath_mappings</title>
<path fill="none" stroke="black" d="M677.3,-1079.71C677.3,-1001.69 677.3,-682.11 677.3,-586.28"/>
<polygon fill="black" stroke="black" points="680.8,-586.23 677.3,-576.23 673.8,-586.23 680.8,-586.23"/>
</g>
<!-- generate_osgi_manifest -->
<g id="node24" class="node">
<title>generate_osgi_manifest</title>
<text text-anchor="middle" x="424.3" y="-554.3" font-family="Times,serif" font-size="14.00">:generate&#45;osgi&#45;manifest</text>
</g>
<!-- compile_jars&#45;&gt;generate_osgi_manifest -->
<g id="edge12" class="edge">
<title>compile_jars&#45;&gt;generate_osgi_manifest</title>
<path fill="none" stroke="black" d="M672.14,-1079.9C655.47,-1025.58 600.07,-852.74 531.3,-720 505.05,-669.34 466.47,-614.96 443.52,-584.14"/>
<polygon fill="black" stroke="black" points="446.28,-581.99 437.48,-576.1 440.68,-586.2 446.28,-581.99"/>
</g>
<!-- test -->
<g id="node31" class="node">
<title>test</title>
<text text-anchor="middle" x="576.3" y="-194.3" font-family="Times,serif" font-size="14.00">:test</text>
</g>
<!-- compile_jars&#45;&gt;test -->
<g id="edge14" class="edge">
<title>compile_jars&#45;&gt;test</title>
<path fill="none" stroke="black" d="M684.6,-1080.01C719.23,-998.53 863.68,-647.41 828.3,-540 782.97,-402.39 658.38,-274.81 603.2,-223.18"/>
<polygon fill="black" stroke="black" points="605.3,-220.35 595.58,-216.12 600.54,-225.49 605.3,-220.35"/>
</g>
<!-- compile_jars&#45;&gt;testCompile -->
<g id="edge13" class="edge">
<title>compile_jars&#45;&gt;testCompile</title>
<path fill="none" stroke="black" d="M640.06,-1082.43C559.5,-1050.92 368.79,-976.31 275.52,-939.82"/>
<polygon fill="black" stroke="black" points="276.58,-936.48 265.99,-936.09 274.03,-943 276.58,-936.48"/>
</g>
<!-- provided_jars -->
<g id="node8" class="node">
<title>provided_jars</title>
<ellipse fill="none" stroke="black" cx="404.3" cy="-1098" rx="76.09" ry="18"/>
<text text-anchor="middle" x="404.3" y="-1094.3" font-family="Times,serif" font-size="14.00">provided JARs</text>
</g>
<!-- provided_jars&#45;&gt;compile -->
<g id="edge31" class="edge">
<title>provided_jars&#45;&gt;compile</title>
<path fill="none" stroke="black" d="M449.6,-1083.46C537.92,-1056.93 739.42,-995.73 918.95,-936.06"/>
<polygon fill="black" stroke="black" points="920.18,-939.34 928.57,-932.86 917.97,-932.7 920.18,-939.34"/>
</g>
<!-- provided_jars&#45;&gt;generate_bundle_classpath_mappings -->
<g id="edge32" class="edge">
<title>provided_jars&#45;&gt;generate_bundle_classpath_mappings</title>
<path fill="none" stroke="black" d="M412.92,-1080.01C452.39,-1002.22 616.02,-679.75 664.01,-585.18"/>
<polygon fill="black" stroke="black" points="667.13,-586.76 668.54,-576.26 660.89,-583.6 667.13,-586.76"/>
</g>
<!-- provided_jars&#45;&gt;generate_osgi_manifest -->
<g id="edge33" class="edge">
<title>provided_jars&#45;&gt;generate_osgi_manifest</title>
<path fill="none" stroke="black" d="M404.94,-1079.71C407.84,-1001.69 419.72,-682.11 423.28,-586.28"/>
<polygon fill="black" stroke="black" points="426.78,-586.35 423.65,-576.23 419.79,-586.09 426.78,-586.35"/>
</g>
<!-- provided_jars&#45;&gt;test -->
<g id="edge35" class="edge">
<title>provided_jars&#45;&gt;test</title>
<path fill="none" stroke="black" d="M395.94,-1079.97C371.91,-1029.34 304.3,-874.84 304.3,-739 304.3,-739 304.3,-739 304.3,-557 304.3,-402.48 466.93,-272.87 540.68,-222.04"/>
<polygon fill="black" stroke="black" points="542.92,-224.75 549.22,-216.23 538.98,-218.96 542.92,-224.75"/>
</g>
<!-- provided_jars&#45;&gt;testCompile -->
<g id="edge34" class="edge">
<title>provided_jars&#45;&gt;testCompile</title>
<path fill="none" stroke="black" d="M387.17,-1080.25C354.87,-1048.66 284.82,-980.15 247.27,-943.42"/>
<polygon fill="black" stroke="black" points="249.37,-940.58 239.77,-936.09 244.47,-945.59 249.37,-940.58"/>
</g>
<!-- test_jars -->
<g id="node9" class="node">
<title>test_jars</title>
<ellipse fill="none" stroke="black" cx="53.3" cy="-1098" rx="53.09" ry="18"/>
<text text-anchor="middle" x="53.3" y="-1094.3" font-family="Times,serif" font-size="14.00">test JARs</text>
</g>
<!-- test_jars&#45;&gt;test -->
<g id="edge49" class="edge">
<title>test_jars&#45;&gt;test</title>
<path fill="none" stroke="black" d="M50.76,-1079.91C43.35,-1028.48 22.3,-870.63 22.3,-739 22.3,-739 22.3,-739 22.3,-557 22.3,-310.25 414.76,-225.25 539.03,-204.52"/>
<polygon fill="black" stroke="black" points="539.89,-207.93 549.2,-202.87 538.77,-201.02 539.89,-207.93"/>
</g>
<!-- test_jars&#45;&gt;testCompile -->
<g id="edge48" class="edge">
<title>test_jars&#45;&gt;testCompile</title>
<path fill="none" stroke="black" d="M68.89,-1080.57C98.72,-1049.16 163.99,-980.41 199.01,-943.53"/>
<polygon fill="black" stroke="black" points="201.65,-945.83 205.99,-936.17 196.57,-941.01 201.65,-945.83"/>
</g>
<!-- classes -->
<g id="node10" class="node">
<title>classes</title>
<ellipse fill="none" stroke="black" cx="865.3" cy="-738" rx="44.39" ry="18"/>
<text text-anchor="middle" x="865.3" y="-734.3" font-family="Times,serif" font-size="14.00">classes</text>
</g>
<!-- classes&#45;&gt;assemble_container_plugin -->
<g id="edge5" class="edge">
<title>classes&#45;&gt;assemble_container_plugin</title>
<path fill="none" stroke="black" d="M879.87,-720.89C908,-689.78 970,-621.24 1003.59,-584.1"/>
<polygon fill="black" stroke="black" points="1006.58,-586.01 1010.7,-576.24 1001.39,-581.31 1006.58,-586.01"/>
</g>
<!-- classes&#45;&gt;generate_bundle_classpath_mappings -->
<g id="edge6" class="edge">
<title>classes&#45;&gt;generate_bundle_classpath_mappings</title>
<path fill="none" stroke="black" d="M848.61,-721.2C815.59,-689.94 741.71,-619.99 702.64,-583"/>
<polygon fill="black" stroke="black" points="704.98,-580.39 695.31,-576.06 700.17,-585.47 704.98,-580.39"/>
</g>
<!-- classes&#45;&gt;generate_osgi_manifest -->
<g id="edge7" class="edge">
<title>classes&#45;&gt;generate_osgi_manifest</title>
<path fill="none" stroke="black" d="M833.16,-725.46C756.32,-696.02 562.24,-617.82 471.85,-580.03"/>
<polygon fill="black" stroke="black" points="472.97,-576.7 462.39,-576.06 470.26,-583.16 472.97,-576.7"/>
</g>
<!-- classes&#45;&gt;test -->
<g id="edge8" class="edge">
<title>classes&#45;&gt;test</title>
<path fill="none" stroke="black" d="M870.64,-720.02C887.26,-663.87 932.71,-480.88 861.3,-360 806.67,-267.54 677.39,-223.85 613.44,-207.31"/>
<polygon fill="black" stroke="black" points="613.94,-203.83 603.39,-204.8 612.24,-210.62 613.94,-203.83"/>
</g>
<!-- test_classes -->
<g id="node11" class="node">
<title>test_classes</title>
<ellipse fill="none" stroke="black" cx="211.3" cy="-378" rx="64.99" ry="18"/>
<text text-anchor="middle" x="211.3" y="-374.3" font-family="Times,serif" font-size="14.00">test&#45;classes</text>
</g>
<!-- test_classes&#45;&gt;test -->
<g id="edge47" class="edge">
<title>test_classes&#45;&gt;test</title>
<path fill="none" stroke="black" d="M242.1,-361.98C309.21,-329.25 468.33,-251.65 540.09,-216.66"/>
<polygon fill="black" stroke="black" points="541.76,-219.74 549.21,-212.21 538.69,-213.45 541.76,-219.74"/>
</g>
<!-- jar -->
<g id="node12" class="node">
<title>jar</title>
<ellipse fill="none" stroke="black" cx="1254.3" cy="-378" rx="27.1" ry="18"/>
<text text-anchor="middle" x="1254.3" y="-374.3" font-family="Times,serif" font-size="14.00">JAR</text>
</g>
<!-- abicheck -->
<g id="node20" class="node">
<title>abicheck</title>
<text text-anchor="middle" x="1133.3" y="-194.3" font-family="Times,serif" font-size="14.00">:abicheck</text>
</g>
<!-- jar&#45;&gt;abicheck -->
<g id="edge25" class="edge">
<title>jar&#45;&gt;abicheck</title>
<path fill="none" stroke="black" d="M1243.56,-361.2C1222.57,-330.33 1175.94,-261.73 1150.56,-224.4"/>
<polygon fill="black" stroke="black" points="1153.41,-222.36 1144.89,-216.06 1147.62,-226.3 1153.41,-222.36"/>
</g>
<!-- install -->
<g id="node26" class="node">
<title>install</title>
<text text-anchor="middle" x="1302.3" y="-194.3" font-family="Times,serif" font-size="14.00">:install</text>
</g>
<!-- jar&#45;&gt;install -->
<g id="edge26" class="edge">
<title>jar&#45;&gt;install</title>
<path fill="none" stroke="black" d="M1258.9,-359.93C1267.25,-328.97 1284.96,-263.3 1294.98,-226.13"/>
<polygon fill="black" stroke="black" points="1298.48,-226.58 1297.71,-216.02 1291.72,-224.76 1298.48,-226.58"/>
</g>
<!-- jar_wdeps -->
<g id="node13" class="node">
<title>jar_wdeps</title>
<ellipse fill="none" stroke="black" cx="976.3" cy="-378" rx="63.09" ry="18"/>
<text text-anchor="middle" x="976.3" y="-374.3" font-family="Times,serif" font-size="14.00">JAR w/deps</text>
</g>
<!-- jar_sources -->
<g id="node14" class="node">
<title>jar_sources</title>
<ellipse fill="none" stroke="black" cx="1172.3" cy="-738" rx="61.19" ry="18"/>
<text text-anchor="middle" x="1172.3" y="-734.3" font-family="Times,serif" font-size="14.00">source JAR</text>
</g>
<!-- site -->
<g id="node15" class="node">
<title>site</title>
<ellipse fill="none" stroke="black" cx="1418.3" cy="-738" rx="46.29" ry="18"/>
<text text-anchor="middle" x="1418.3" y="-734.3" font-family="Times,serif" font-size="14.00">javadoc</text>
</g>
<!-- gjar -->
<g id="node27" class="node">
<title>gjar</title>
<text text-anchor="middle" x="1451.3" y="-554.3" font-family="Times,serif" font-size="14.00">:jar</text>
</g>
<!-- site&#45;&gt;gjar -->
<g id="edge37" class="edge">
<title>site&#45;&gt;gjar</title>
<path fill="none" stroke="black" d="M1421.46,-719.93C1427.2,-688.97 1439.37,-623.3 1446.27,-586.13"/>
<polygon fill="black" stroke="black" points="1449.76,-586.49 1448.14,-576.02 1442.88,-585.21 1449.76,-586.49"/>
</g>
<!-- jar_javadoc -->
<g id="node16" class="node">
<title>jar_javadoc</title>
<ellipse fill="none" stroke="black" cx="1484.3" cy="-378" rx="65.79" ry="18"/>
<text text-anchor="middle" x="1484.3" y="-374.3" font-family="Times,serif" font-size="14.00">javadoc JAR</text>
</g>
<!-- abi -->
<g id="node17" class="node">
<title>abi</title>
<ellipse fill="none" stroke="black" cx="1133.3" cy="-378" rx="76.09" ry="18"/>
<text text-anchor="middle" x="1133.3" y="-374.3" font-family="Times,serif" font-size="14.00">abi&#45;check.json</text>
</g>
<!-- abi&#45;&gt;abicheck -->
<g id="edge1" class="edge">
<title>abi&#45;&gt;abicheck</title>
<path fill="none" stroke="black" d="M1133.3,-359.93C1133.3,-328.97 1133.3,-263.3 1133.3,-226.13"/>
<polygon fill="black" stroke="black" points="1136.8,-226.02 1133.3,-216.02 1129.8,-226.02 1136.8,-226.02"/>
</g>
<!-- pom -->
<g id="node18" class="node">
<title>pom</title>
<ellipse fill="none" stroke="black" cx="1350.3" cy="-378" rx="50.89" ry="18"/>
<text text-anchor="middle" x="1350.3" y="-374.3" font-family="Times,serif" font-size="14.00">pom.xml</text>
</g>
<!-- pom&#45;&gt;install -->
<g id="edge30" class="edge">
<title>pom&#45;&gt;install</title>
<path fill="none" stroke="black" d="M1345.69,-359.93C1337.34,-328.97 1319.63,-263.3 1309.61,-226.13"/>
<polygon fill="black" stroke="black" points="1312.87,-224.76 1306.88,-216.02 1306.11,-226.58 1312.87,-224.76"/>
</g>
<!-- repo -->
<g id="node19" class="node">
<title>repo</title>
<ellipse fill="none" stroke="black" cx="1302.3" cy="-18" rx="89.88" ry="18"/>
<text text-anchor="middle" x="1302.3" y="-14.3" font-family="Times,serif" font-size="14.00">~/.m2/repository</text>
</g>
<!-- HALT -->
<g id="node34" class="node">
<title>HALT</title>
<ellipse fill="none" stroke="black" cx="1027.3" cy="-18" rx="36.29" ry="18"/>
<text text-anchor="middle" x="1027.3" y="-14.3" font-family="Times,serif" font-size="14.00">HALT</text>
</g>
<!-- abicheck&#45;&gt;HALT -->
<g id="edge2" class="edge">
<title>abicheck&#45;&gt;HALT</title>
<path fill="none" stroke="black" d="M1123.13,-179.93C1104.36,-148.41 1064.17,-80.92 1042.27,-44.14"/>
<polygon fill="black" stroke="black" points="1045.24,-42.3 1037.12,-35.5 1039.23,-45.88 1045.24,-42.3"/>
</g>
<!-- assemble_container_plugin&#45;&gt;jar -->
<g id="edge3" class="edge">
<title>assemble_container_plugin&#45;&gt;jar</title>
<path fill="none" stroke="black" d="M1048.16,-539.93C1090.67,-506.74 1184.24,-433.69 1229.2,-398.59"/>
<polygon fill="black" stroke="black" points="1231.54,-401.21 1237.27,-392.29 1227.23,-395.69 1231.54,-401.21"/>
</g>
<!-- assemble_container_plugin&#45;&gt;jar_wdeps -->
<g id="edge4" class="edge">
<title>assemble_container_plugin&#45;&gt;jar_wdeps</title>
<path fill="none" stroke="black" d="M1021.5,-539.93C1012.77,-508.83 994.2,-442.73 983.78,-405.65"/>
<polygon fill="black" stroke="black" points="987.15,-404.7 981.07,-396.02 980.41,-406.59 987.15,-404.7"/>
</g>
<!-- compile&#45;&gt;classes -->
<g id="edge15" class="edge">
<title>compile&#45;&gt;classes</title>
<path fill="none" stroke="black" d="M957.52,-899.93C939.57,-868.62 901.3,-801.83 880.13,-764.9"/>
<polygon fill="black" stroke="black" points="882.91,-762.69 874.9,-755.76 876.83,-766.17 882.91,-762.69"/>
</g>
<!-- generate_bundle_classpath_mappings&#45;&gt;test_classes -->
<g id="edge18" class="edge">
<title>generate_bundle_classpath_mappings&#45;&gt;test_classes</title>
<path fill="none" stroke="black" d="M632.61,-539.93C544.04,-506.1 347,-430.84 257.33,-396.58"/>
<polygon fill="black" stroke="black" points="258.56,-393.31 247.97,-393.01 256.06,-399.85 258.56,-393.31"/>
</g>
<!-- generate_osgi_manifest&#45;&gt;classes -->
<g id="edge19" class="edge">
<title>generate_osgi_manifest&#45;&gt;classes</title>
<path fill="none" stroke="black" d="M470.85,-576.1C558.74,-610.19 747.15,-686.24 827.67,-720.14"/>
<polygon fill="black" stroke="black" points="826.37,-723.39 836.95,-724.06 829.1,-716.94 826.37,-723.39"/>
</g>
<!-- generateSources&#45;&gt;generated_sources -->
<g id="edge17" class="edge">
<title>generateSources&#45;&gt;generated_sources</title>
<path fill="none" stroke="black" d="M1352.3,-1259.93C1352.3,-1228.97 1352.3,-1163.3 1352.3,-1126.13"/>
<polygon fill="black" stroke="black" points="1355.8,-1126.02 1352.3,-1116.02 1348.8,-1126.02 1355.8,-1126.02"/>
</g>
<!-- install&#45;&gt;repo -->
<g id="edge24" class="edge">
<title>install&#45;&gt;repo</title>
<path fill="none" stroke="black" d="M1302.3,-179.93C1302.3,-148.97 1302.3,-83.3 1302.3,-46.13"/>
<polygon fill="black" stroke="black" points="1305.8,-46.02 1302.3,-36.02 1298.8,-46.02 1305.8,-46.02"/>
</g>
<!-- gjar&#45;&gt;jar_javadoc -->
<g id="edge23" class="edge">
<title>gjar&#45;&gt;jar_javadoc</title>
<path fill="none" stroke="black" d="M1454.46,-539.93C1460.2,-508.97 1472.37,-443.3 1479.27,-406.13"/>
<polygon fill="black" stroke="black" points="1482.76,-406.49 1481.14,-396.02 1475.88,-405.21 1482.76,-406.49"/>
</g>
<!-- jar_no_fork&#45;&gt;jar_sources -->
<g id="edge27" class="edge">
<title>jar_no_fork&#45;&gt;jar_sources</title>
<path fill="none" stroke="black" d="M1172.3,-899.93C1172.3,-868.97 1172.3,-803.3 1172.3,-766.13"/>
<polygon fill="black" stroke="black" points="1175.8,-766.02 1172.3,-756.02 1168.8,-766.02 1175.8,-766.02"/>
</g>
<!-- javadoc_no_fork&#45;&gt;site -->
<g id="edge28" class="edge">
<title>javadoc_no_fork&#45;&gt;site</title>
<path fill="none" stroke="black" d="M1358.62,-899.93C1370.15,-868.83 1394.66,-802.73 1408.41,-765.65"/>
<polygon fill="black" stroke="black" points="1411.79,-766.61 1411.99,-756.02 1405.23,-764.18 1411.79,-766.61"/>
</g>
<!-- resources&#45;&gt;classes -->
<g id="edge36" class="edge">
<title>resources&#45;&gt;classes</title>
<path fill="none" stroke="black" d="M865.3,-899.93C865.3,-868.97 865.3,-803.3 865.3,-766.13"/>
<polygon fill="black" stroke="black" points="868.8,-766.02 865.3,-756.02 861.8,-766.02 868.8,-766.02"/>
</g>
<!-- test&#45;&gt;HALT -->
<g id="edge44" class="edge">
<title>test&#45;&gt;HALT</title>
<path fill="none" stroke="black" d="M603.49,-186.27C680.86,-155.73 902.29,-68.34 990.44,-33.55"/>
<polygon fill="black" stroke="black" points="991.76,-36.79 999.78,-29.86 989.19,-30.28 991.76,-36.79"/>
</g>
<!-- testCompile&#45;&gt;test_classes -->
<g id="edge45" class="edge">
<title>testCompile&#45;&gt;test_classes</title>
<path fill="none" stroke="black" d="M225.88,-899.71C231.76,-870.34 243.23,-808.74 247.3,-756 257.41,-624.9 229.75,-468.55 217.16,-406.41"/>
<polygon fill="black" stroke="black" points="220.52,-405.35 215.07,-396.27 213.66,-406.77 220.52,-405.35"/>
</g>
<!-- testResources&#45;&gt;test_classes -->
<g id="edge46" class="edge">
<title>testResources&#45;&gt;test_classes</title>
<path fill="none" stroke="black" d="M165.19,-539.93C174.1,-508.83 193.03,-442.73 203.66,-405.65"/>
<polygon fill="black" stroke="black" points="207.03,-406.59 206.42,-396.02 200.3,-404.66 207.03,-406.59"/>
</g>
<!-- nonjars -->
<g id="node35" class="node">
<title>nonjars</title>
<ellipse fill="none" stroke="black" cx="477.3" cy="-738" rx="45.49" ry="18"/>
<text text-anchor="middle" x="477.3" y="-734.3" font-family="Times,serif" font-size="14.00">nonjars</text>
</g>
<!-- nonjars&#45;&gt;generate_osgi_manifest -->
<g id="edge29" class="edge">
<title>nonjars&#45;&gt;generate_osgi_manifest</title>
<path fill="none" stroke="black" d="M472.21,-719.93C462.95,-688.83 443.27,-622.73 432.23,-585.65"/>
<polygon fill="black" stroke="black" points="435.57,-584.6 429.36,-576.02 428.86,-586.6 435.57,-584.6"/>
</g>
</g>
</svg>
